<svg width="78" height="25" viewBox="0 0 78 25" fill="none" xmlns="http://www.w3.org/2000/svg">
<path d="M68.9102 22.2368V9.31955H72.897V11.3927H72.9501C73.8006 9.82455 74.9169 9.00061 76.6711 9.00061C77.123 9.00061 77.628 9.02719 78.0001 9.1335V12.7748C77.4419 12.6153 76.8838 12.509 76.299 12.509C73.2691 12.509 72.897 14.2632 72.897 16.8413V22.2368H68.9102Z" fill="#E73650"/>
<path d="M63.6523 22.2368V2.14331H67.6391V22.2368H63.6523Z" fill="#E73650"/>
<path d="M58.3438 22.2368V2.14331H62.3306V22.2368H58.3438Z" fill="#E73650"/>
<path d="M54.0607 17.9576L56.8515 20.0042C55.5757 21.6255 53.476 22.5558 51.4028 22.5558C47.416 22.5558 44.2266 19.8979 44.2266 15.7782C44.2266 11.6585 47.416 9.00061 51.4028 9.00061C55.1238 9.00061 57.4628 11.6585 57.4628 15.7782V17.0274H48.2134C48.5323 18.5424 49.6752 19.5258 51.2168 19.5258C52.5191 19.5258 53.3962 18.8613 54.0607 17.9576ZM48.2134 14.3164H53.476C53.5025 12.9874 52.466 11.8711 51.0307 11.8711C49.2765 11.8711 48.3197 13.0672 48.2134 14.3164Z" fill="#E73650"/>
<path d="M43.6697 10.7016L41.2245 13.1203C40.6397 12.4027 39.8689 12.0306 38.9121 12.0306C38.2476 12.0306 37.4503 12.3229 37.4503 13.0937C37.4503 15.0074 44.1747 13.3861 44.1747 18.3032C44.1747 21.5989 40.9853 22.5558 38.2211 22.5558C36.4137 22.5558 34.4203 22.1039 33.1445 20.8016L35.5632 18.1171C36.3074 19.0208 37.1845 19.5258 38.3805 19.5258C39.2842 19.5258 40.1879 19.2866 40.1879 18.5955C40.1879 16.5224 33.4635 18.2766 33.4635 13.3595C33.4635 10.3295 36.1745 9.00061 38.8855 9.00061C40.5866 9.00061 42.4737 9.42587 43.6697 10.7016Z" fill="#E73650"/>
<rect x="8.76562" width="6.97868" height="16.4492" rx="3.48934" transform="rotate(32.2126 8.76562 0)" fill="#E73650"/>
<path d="M27.5217 12.3569L26.675 11.9858C27.3291 13.666 27.207 15.6235 26.1721 17.2661L22.4035 23.2476C21.3763 24.878 19.2215 25.3675 17.591 24.3403C15.9606 23.3131 15.4711 21.1583 16.4983 19.5278L22.425 10.1206L22.4221 10.1196L22.6447 9.77197L23.4074 8.56299L23.4182 8.56982L24.9026 6.26221L27.5217 12.3569Z" fill="#E73650"/>
<path d="M16.7725 3.18655C17.7997 1.55609 19.9545 1.06651 21.585 2.09378C23.2153 3.12104 23.7039 5.27586 22.6768 6.90628L12.7588 22.6475C11.7316 24.2778 9.57769 24.7672 7.94727 23.7403C7.51256 23.4664 7.15888 23.1119 6.89355 22.709V22.7129L6.86426 22.6631C6.82309 22.5984 6.78372 22.5328 6.74707 22.4658L4.08984 17.9766C5.89073 18.1393 7.22988 18.0176 8.35449 16.5449L16.7725 3.18655Z" fill="#E73650"/>
</svg>
